<svg width="1100" height="400" viewBox="0 0 1100 400" fill="none" xmlns="http://www.w3.org/2000/svg">
<rect width="1100" height="400" fill="white"/>
<path d="M0 0H1100V400H0V0Z" fill="#7F977B" fill-opacity="0.4"/>
<path opacity="0.3" d="M512.666 170.333L512.333 170.667V228.667H587C587.125 228.583 587.25 228.417 587.333 228.333V170.667L587 170.333H512.666ZM520.666 220.333L535.25 201.583L545.666 214.125L560.25 195.333L579 220.333H520.666Z" fill="#444444" fill-opacity="0.3"/>
<path d="M587.333 162H512.333C508.167 162 504 166.167 504 170.333V228.667C504 233.25 507.75 237 512.333 237H587.333C591.5 237 595.667 232.833 595.667 228.667V170.333C595.667 166.167 591.5 162 587.333 162ZM587.333 228.333C587.25 228.458 587.083 228.583 587 228.667H512.333V170.667L512.667 170.333H586.958C587.083 170.417 587.208 170.583 587.292 170.667V228.333H587.333ZM545.667 214.125L535.25 201.583L520.667 220.333H579L560.25 195.333L545.667 214.125Z" fill="white" fill-opacity="0.5"/>
</svg>
